<?xml version="1.0" encoding="utf-8"?>
<!-- Generator: Adobe Illustrator 16.0.0, SVG Export Plug-In . SVG Version: 6.00 Build 0)  -->
<!DOCTYPE svg PUBLIC "-//W3C//DTD SVG 1.1//EN" "http://www.w3.org/Graphics/SVG/1.1/DTD/svg11.dtd">
<svg version="1.1" id="Layer_1" xmlns="http://www.w3.org/2000/svg" xmlns:xlink="http://www.w3.org/1999/xlink" x="0px" y="0px"
	 width="2814.22px" height="554px" viewBox="0 0 2814.22 554" enable-background="new 0 0 2814.22 554" xml:space="preserve">
<image display="none" overflow="visible" enable-background="new    " width="1024" height="768" xlink:href="91CC203A.png"  transform="matrix(1 0 0 1 0 -1)">
</image>
<polygon fill="#8AB839" points="162,376 90,516 235,516 "/>
<polygon fill="#8AB839" points="237.5,230 165.5,370 310.5,370 "/>
<polygon fill="#8AB839" points="316,85 244,225 389,225 "/>
<polygon fill="#8AB839" points="464.5,376 392.5,516 537.5,516 "/>
<polygon fill="#8AB839" points="543.5,230 471.5,370 616.5,370 "/>
<polygon fill="#8AB839" points="396,230 536.667,230 463.875,370 323.875,370 "/>
<polygon fill="#8AB839" points="394,222 322,82 467,82 "/>
<polygon fill="#8AB839" points="316,370 244,230 389,230 "/>
<polygon fill="#8AB839" points="543.5,516 471.5,376 616.5,376 "/>
<polygon fill="#8AB839" points="241.5,516 169.5,376 314.5,376 "/>
<polygon fill="#2E2E2E" points="701,222 629,82 774,82 "/>
<polygon fill="#2E2E2E" points="855,516 783,376 928,376 "/>
<polygon fill="#2E2E2E" points="623,370 551,230 696,230 "/>
<polygon fill="#2E2E2E" points="623,85 551,225 696,225 "/>
<polygon fill="#2E2E2E" points="774.5,376 702.5,516 847.5,516 "/>
<polygon fill="#2E2E2E" points="852,230 780,370 925,370 "/>
<polygon fill="#2E2E2E" points="594.836,431.996 552,516 697.125,516 738.771,431.996 "/>
<polygon fill="#2E2E2E" points="702.833,230 843.5,230 770.708,370 630.709,370 "/>
<polygon fill="#2E2E2E" points="780.167,82 736.667,166.004 884.042,166.004 926.334,82 "/>
<rect x="961.364" y="228.314" fill="none" width="1623.161" height="297.03"/>
<text transform="matrix(1 0 0 1 998.3643 376.8291)" enable-background="new    "><tspan x="0" y="0" font-family="'Neou-Bold'" font-size="202">henrisutinen.net</tspan><tspan x="0" y="138" font-family="'Neou-Thin'" font-size="115">media engineering student</tspan></text>
</svg>
