<?xml version="1.0" encoding="utf-8"?>
<!-- Generator: Adobe Illustrator 16.0.0, SVG Export Plug-In . SVG Version: 6.00 Build 0)  -->
<!DOCTYPE svg PUBLIC "-//W3C//DTD SVG 1.1//EN" "http://www.w3.org/Graphics/SVG/1.1/DTD/svg11.dtd">
<svg version="1.1" id="Layer_1" xmlns="http://www.w3.org/2000/svg" xmlns:xlink="http://www.w3.org/1999/xlink" x="0px" y="0px"
	 width="3164.605px" height="554px" viewBox="0 0 3164.605 554" enable-background="new 0 0 3164.605 554" xml:space="preserve">
<image display="none" overflow="visible" enable-background="new    " width="1024" height="768" xlink:href="DB4EEEAC.png"  transform="matrix(1 0 0 1 0 -1)">
</image>
<polygon fill="#8AB839" points="162,376 90,516 235,516 "/>
<polygon fill="#8AB839" points="237.5,230 165.5,370 310.5,370 "/>
<polygon fill="#8AB839" points="316,85 244,225 389,225 "/>
<polygon fill="#8AB839" points="464.5,376 392.5,516 537.5,516 "/>
<polygon fill="#8AB839" points="543.5,230 471.5,370 616.5,370 "/>
<polygon fill="#8AB839" points="396,230 536.667,230 463.875,370 323.875,370 "/>
<polygon fill="#8AB839" points="394,222 322,82 467,82 "/>
<polygon fill="#8AB839" points="316,370 244,230 389,230 "/>
<polygon fill="#8AB839" points="543.5,516 471.5,376 616.5,376 "/>
<polygon fill="#8AB839" points="241.5,516 169.5,376 314.5,376 "/>
<polygon fill="#2E2E2E" points="701,222 629,82 774,82 "/>
<polygon fill="#2E2E2E" points="855,516 783,376 928,376 "/>
<polygon fill="#2E2E2E" points="623,370 551,230 696,230 "/>
<polygon fill="#2E2E2E" points="623,85 551,225 696,225 "/>
<polygon fill="#2E2E2E" points="774.5,376 702.5,516 847.5,516 "/>
<polygon fill="#2E2E2E" points="852,230 780,370 925,370 "/>
<polygon fill="#2E2E2E" points="594.836,431.996 552,516 697.125,516 738.771,431.996 "/>
<polygon fill="#2E2E2E" points="702.833,230 843.5,230 770.708,370 630.709,370 "/>
<polygon fill="#2E2E2E" points="780.167,82 736.667,166.004 884.042,166.004 926.334,82 "/>
<g>
	<path d="M1075.805,376.829v-97.474h-35.281v97.474h-28.704V162.147h28.704v91.194h35.281v-91.194h28.704v214.682H1075.805z"/>
	<path d="M1131.417,376.829V162.147h71.162v26.013h-42.458v65.182h37.674v26.014h-37.674v71.462h42.458v26.013L1131.417,376.829
		L1131.417,376.829z"/>
	<path d="M1282.709,265.9V162.147h28.704v214.682h-28.704v-42.757l-30.797-97.773v140.53h-28.704V162.147h28.704L1282.709,265.9z"/>
	<path d="M1338.321,162.147h56.212c21.924,0,32.889,12.259,32.889,36.776v52.923c0,18.739-5.68,30.602-17.043,35.581l20.033,89.401
		h-27.208l-18.837-86.71h-17.342v86.71h-28.704V162.147z M1367.025,265.602h18.837c8.567,0,12.855-5.182,12.855-15.549v-46.345
		c0-10.362-4.288-15.548-12.855-15.548h-18.837V265.602z"/>
	<path d="M1451.34,376.829V162.147h28.705v214.682H1451.34z"/>
	<path d="M1561.967,219.854v-18.837c0-8.568-4.186-12.857-12.559-12.857h-4.484c-8.176,0-12.26,4.289-12.26,12.857v35.58
		c0,3.99,0.795,6.682,2.393,8.073c1.594,1.397,4.188,3.191,7.773,5.382l27.209,14.651c5.98,3.392,10.213,6.031,12.709,7.924
		c2.488,1.896,4.434,4.186,5.83,6.877c1.393,2.689,2.092,7.825,2.092,15.398v45.747c0,24.12-11.563,36.179-34.684,36.179h-17.643
		c-22.924,0-34.385-13.156-34.385-39.468v-10.766h28.705v11.661c0,8.372,4.283,12.56,12.857,12.56h5.082
		c7.572,0,11.361-4.188,11.361-12.56V301.78c0-3.985-0.799-6.677-2.393-8.073c-1.598-1.393-4.188-3.188-7.773-5.382l-27.209-15.249
		c-5.979-3.187-10.314-5.877-13.006-8.073c-2.691-2.191-4.635-5.031-5.832-8.521c-1.195-3.485-1.793-8.021-1.793-13.604v-43.953
		c0-24.518,11.459-36.776,34.385-36.776h17.939c22.92,0,34.385,12.259,34.385,36.776v20.931h-28.701V219.854z"/>
	<path d="M1707.875,162.147v174.018c0,27.111-11.564,40.664-34.686,40.664h-24.219c-22.926,0-34.385-13.651-34.385-40.963V162.147
		h28.703v174.615c0,9.372,4.186,14.055,12.559,14.055h11.66c7.775,0,11.662-4.683,11.662-14.055V162.147H1707.875z"/>
	<path d="M1780.53,188.16v188.669h-28.703V188.16h-27.508v-26.013h83.719v26.013H1780.53z"/>
	<path d="M1824.479,376.829V162.147h28.703v214.682H1824.479z"/>
	<path d="M1939.59,265.9V162.147h28.705v214.682h-28.705v-42.757l-30.797-97.773v140.53h-28.703V162.147h28.703L1939.59,265.9z"/>
	<path d="M1995.204,376.829V162.147h71.162v26.013h-42.459v65.182h37.674v26.014h-37.674v71.462h42.459v26.013L1995.204,376.829
		L1995.204,376.829z"/>
	<path d="M2146.495,265.9V162.147h28.705v214.682h-28.705v-42.757l-30.797-97.773v140.53h-28.703V162.147h28.703L2146.495,265.9z"/>
	<path d="M2228.12,340.352v36.479h-30.498v-36.479H2228.12z"/>
	<path d="M1077.484,432.604v82.226h-8.625v-59.34l-27.945,59.34h-6.325l-27.6-59.226v59.226h-8.625v-82.226h7.359l32.086,68.654
		l32.199-68.654H1077.484L1077.484,432.604z"/>
	<path d="M1086.683,432.604h54.165v8.625h-45.54v28.176h33.235v8.625h-33.235v28.175h45.54v8.625h-54.165V432.604z"/>
	<path d="M1192.324,435.824c4.991,2.146,9.349,5.08,13.073,8.798c3.726,3.719,6.663,8.069,8.813,13.052
		c2.149,4.984,3.226,10.313,3.226,15.985c0,5.675-1.076,11.021-3.226,16.042c-2.151,5.021-5.089,9.393-8.813,13.109
		c-3.725,3.721-8.082,6.652-13.073,8.799c-4.992,2.146-10.33,3.22-16.013,3.22h-26.265v-82.226h26.265
		C1181.994,432.604,1187.333,433.679,1192.324,435.824z M1188.917,503.626c3.985-1.718,7.436-4.049,10.35-6.99
		c2.913-2.938,5.232-6.377,6.958-10.313s2.587-8.156,2.587-12.664c0-4.433-0.862-8.632-2.587-12.605
		c-1.725-3.971-4.045-7.407-6.958-10.312c-2.915-2.904-6.364-5.215-10.35-6.936c-3.987-1.718-8.205-2.578-12.65-2.578h-17.595
		v64.976h17.595C1180.713,506.204,1184.93,505.345,1188.917,503.626z"/>
	<path d="M1240.093,441.229v64.976h14.029v8.625h-36.686v-8.625h14.03v-64.976h-14.03v-8.625h36.686v8.625H1240.093
		L1240.093,441.229z"/>
	<path d="M1305.986,432.604l36.109,82.226h-9.314l-11.155-25.415h-37.835l-11.154,25.415h-9.314l36.109-82.226H1305.986
		L1305.986,432.604z M1317.831,480.789l-15.064-34.385l-15.181,34.385H1317.831z"/>
	<path d="M1391.085,432.604h54.166v8.625h-45.541v28.176h33.236v8.625h-33.236v28.175h45.541v8.625h-54.166V432.604z"/>
	<path d="M1512.87,432.604h8.625v82.226h-6.9l-51.52-65.896v65.896h-8.625v-82.226h6.898l51.521,65.896V432.604z"/>
	<path d="M1570.829,477.339h41.975l-0.459,4.485c-0.539,4.907-2.033,9.372-4.484,13.396c-2.455,4.025-5.521,7.495-9.201,10.407
		c-3.68,2.915-7.82,5.175-12.42,6.785s-9.354,2.415-14.26,2.415c-5.676,0-11.021-1.072-16.043-3.22
		c-5.021-2.146-9.396-5.078-13.125-8.799c-3.729-3.718-6.68-8.067-8.854-13.053c-2.176-4.981-3.264-10.311-3.264-15.984
		c0-5.673,1.088-11.001,3.264-15.984c2.174-4.982,5.127-9.354,8.854-13.11c3.729-3.755,8.104-6.707,13.125-8.854
		s10.367-3.221,16.043-3.221c4.754,0,9.295,0.799,13.627,2.391c4.33,1.592,8.262,3.775,11.787,6.555
		c3.525,2.778,6.535,6.083,9.027,9.915c2.49,3.835,4.313,8.05,5.463,12.65h-8.854c-1.074-3.373-2.627-6.458-4.658-9.259
		c-2.031-2.798-4.41-5.213-7.129-7.244c-2.725-2.03-5.732-3.604-9.029-4.716c-3.297-1.109-6.709-1.667-10.234-1.667
		c-4.523,0-8.76,0.862-12.707,2.584c-3.949,1.722-7.398,4.056-10.35,7.003c-2.953,2.946-5.291,6.408-7.016,10.39
		c-1.727,3.979-2.588,8.188-2.588,12.627c0,4.515,0.861,8.743,2.588,12.686c1.725,3.942,4.063,7.386,7.016,10.332
		c2.949,2.947,6.4,5.281,10.35,7.002c3.947,1.723,8.184,2.584,12.707,2.584c3.373,0,6.613-0.498,9.719-1.495
		c3.104-0.996,5.979-2.376,8.625-4.142c2.645-1.763,4.982-3.91,7.016-6.438c2.029-2.53,3.66-5.328,4.887-8.396h-31.395v-8.625
		H1570.829z"/>
	<path d="M1635.459,441.229v64.976h14.029v8.625h-36.686v-8.625h14.029v-64.976h-14.029v-8.625h36.686v8.625H1635.459
		L1635.459,441.229z"/>
	<path d="M1717.108,432.604h8.625v82.226h-6.9l-51.521-65.896v65.896h-8.625v-82.226h6.9l51.521,65.896V432.604z"/>
	<path d="M1734.932,432.604h54.164v8.625h-45.539v28.176h33.234v8.625h-33.234v28.175h45.539v8.625h-54.164V432.604z"/>
	<path d="M1798.295,432.604h54.166v8.625h-45.541v28.176h33.236v8.625h-33.236v28.175h45.541v8.625h-54.166V432.604z"/>
	<path d="M1880.676,478.029l41.516,36.8h-12.766l-39.141-34.845v34.845h-8.625v-82.226h32.613c3.072,0,5.99,0.596,8.758,1.782
		c2.766,1.189,5.166,2.817,7.203,4.889c2.035,2.068,3.648,4.483,4.84,7.244c1.189,2.761,1.787,5.675,1.787,8.739
		c0,3.146-0.598,6.096-1.787,8.855c-1.191,2.76-2.805,5.175-4.84,7.245c-2.037,2.068-4.438,3.698-7.203,4.888
		c-2.768,1.188-5.686,1.782-8.758,1.782L1880.676,478.029L1880.676,478.029z M1870.286,469.404h23.92
		c1.916,0,3.738-0.363,5.463-1.094c1.725-0.728,3.221-1.742,4.484-3.048c1.266-1.303,2.262-2.797,2.99-4.483
		s1.094-3.525,1.094-5.521c0-1.915-0.365-3.736-1.094-5.462s-1.725-3.221-2.99-4.485s-2.76-2.261-4.484-2.989
		s-3.547-1.093-5.463-1.093h-23.92V469.404z"/>
	<path d="M1954.004,441.229v64.976h14.029v8.625h-36.686v-8.625h14.031v-64.976h-14.031v-8.625h36.686v8.625H1954.004
		L1954.004,441.229z"/>
	<path d="M2035.653,432.604h8.625v82.226h-6.9l-51.52-65.896v65.896h-8.625v-82.226h6.9l51.52,65.896V432.604z"/>
	<path d="M2093.612,477.339h41.977l-0.461,4.485c-0.537,4.907-2.031,9.372-4.484,13.396c-2.455,4.025-5.521,7.495-9.199,10.407
		c-3.682,2.915-7.82,5.175-12.42,6.785c-4.602,1.61-9.355,2.415-14.262,2.415c-5.674,0-11.021-1.072-16.043-3.22
		c-5.02-2.146-9.396-5.078-13.123-8.799c-3.729-3.718-6.682-8.067-8.855-13.053c-2.176-4.981-3.262-10.311-3.262-15.984
		c0-5.673,1.086-11.001,3.262-15.984c2.176-4.982,5.127-9.354,8.855-13.11c3.727-3.755,8.104-6.707,13.123-8.854
		c5.021-2.146,10.369-3.221,16.043-3.221c4.754,0,9.295,0.799,13.627,2.391s8.262,3.775,11.789,6.555
		c3.525,2.778,6.535,6.083,9.027,9.915c2.49,3.835,4.313,8.05,5.463,12.65h-8.855c-1.074-3.373-2.627-6.458-4.656-9.259
		c-2.033-2.798-4.41-5.213-7.131-7.244c-2.723-2.03-5.732-3.604-9.027-4.716c-3.297-1.109-6.709-1.667-10.234-1.667
		c-4.523,0-8.76,0.862-12.707,2.584c-3.949,1.722-7.4,4.056-10.352,7.003c-2.951,2.946-5.289,6.408-7.014,10.39
		c-1.727,3.979-2.588,8.188-2.588,12.627c0,4.515,0.861,8.743,2.588,12.686c1.725,3.942,4.063,7.386,7.014,10.332
		c2.951,2.947,6.4,5.281,10.352,7.002c3.947,1.723,8.184,2.584,12.707,2.584c3.373,0,6.611-0.498,9.719-1.495
		c3.104-0.996,5.979-2.376,8.625-4.142c2.645-1.763,4.98-3.91,7.014-6.438c2.031-2.53,3.66-5.328,4.889-8.396h-31.396v-8.625
		H2093.612z"/>
	<path d="M2231.784,472.451c2.645,1.343,4.904,3.03,6.783,5.061c1.879,2.032,3.355,4.294,4.43,6.785
		c1.07,2.492,1.607,5.117,1.607,7.877c0,3.146-0.688,6.096-2.068,8.855c-1.381,2.759-3.277,5.156-5.691,7.188
		c-2.416,2.032-5.232,3.643-8.453,4.83c-3.221,1.189-6.67,1.782-10.35,1.782h-7.016c-3.682,0-7.131-0.593-10.352-1.782
		c-3.219-1.188-6.037-2.798-8.451-4.83c-2.416-2.029-4.313-4.428-5.691-7.188s-2.07-5.711-2.07-8.855v-0.46l0.115-3.22h8.969
		l-0.115,3.68c-0.076,1.918,0.346,3.737,1.268,5.463c0.92,1.726,2.184,3.221,3.795,4.485c1.607,1.265,3.486,2.262,5.635,2.989
		c2.145,0.729,4.445,1.093,6.898,1.093h7.016c2.375,0,4.639-0.363,6.785-1.093c2.146-0.729,4.023-1.726,5.635-2.989
		c1.609-1.266,2.875-2.761,3.795-4.485c0.92-1.726,1.381-3.545,1.381-5.463c0-1.915-0.461-3.736-1.381-5.462
		s-2.186-3.238-3.795-4.543c-1.609-1.303-3.488-2.317-5.635-3.047s-4.41-1.093-6.785-1.093h-0.23h-1.148h-1.84
		c-2.379-0.153-4.945-0.402-7.705-0.748c-2.762-0.346-5.021-1.053-6.785-2.127c-8.971-5.213-13.455-11.846-13.455-19.896
		c0-3.064,0.689-5.979,2.07-8.739c1.379-2.761,3.277-5.176,5.691-7.244c2.416-2.07,5.232-3.698,8.453-4.889
		c3.219-1.188,6.67-1.782,10.35-1.782h2.07c3.523,0,6.859,0.558,10.004,1.668c3.143,1.111,5.924,2.627,8.338,4.543
		c2.416,1.917,4.352,4.196,5.809,6.842c1.455,2.646,2.262,5.463,2.414,8.453l0.23,3.449h-8.971l-0.23-3.104
		c-0.154-1.84-0.709-3.565-1.666-5.175c-0.961-1.61-2.242-3.008-3.854-4.197c-1.609-1.188-3.449-2.128-5.52-2.818
		c-2.07-0.688-4.256-1.033-6.557-1.033h-2.068c-2.455,0-4.736,0.363-6.844,1.092c-2.109,0.729-3.949,1.726-5.521,2.99
		c-1.57,1.265-2.816,2.76-3.736,4.484c-0.92,1.726-1.379,3.547-1.379,5.462c0,1.918,0.42,3.721,1.264,5.405
		c0.844,1.688,2.014,3.162,3.508,4.428c1.496,1.266,3.258,2.282,5.291,3.047c2.029,0.769,4.197,1.19,6.496,1.267h0.576h0.229h3.451
		v0.114c3.832,0.077,5.824,0.191,5.979,0.346h0.346C2226.245,470.249,2229.139,471.111,2231.784,472.451z"/>
	<path d="M2248.17,432.604h61.525v8.625h-26.449v73.601h-8.625v-73.601h-26.451V432.604z"/>
	<path d="M2375.016,432.604h8.625v49.909c0,4.447-0.846,8.625-2.535,12.535c-1.688,3.91-4.012,7.343-6.971,10.293
		c-2.957,2.952-6.393,5.271-10.311,6.957c-3.916,1.688-8.102,2.53-12.557,2.53c-4.225,0-8.199-0.747-11.924-2.242
		s-7.027-3.546-9.908-6.152c-2.879-2.604-5.24-5.692-7.084-9.258c-1.846-3.564-2.996-7.378-3.455-11.441h-0.115v-3.222v-49.909
		h8.625v50.177c0,3.216,0.633,6.258,1.896,9.13c1.266,2.871,2.971,5.357,5.117,7.462c2.146,2.105,4.676,3.771,7.59,4.996
		c2.912,1.225,5.98,1.836,9.199,1.836c3.221,0,6.27-0.611,9.145-1.836c2.875-1.227,5.404-2.891,7.59-4.996
		c2.186-2.104,3.91-4.572,5.176-7.404c1.264-2.832,1.896-5.855,1.896-9.071v-0.459V432.604L2375.016,432.604z"/>
	<path d="M2435.002,435.824c4.992,2.146,9.35,5.08,13.074,8.798c3.725,3.719,6.662,8.069,8.813,13.052
		c2.148,4.984,3.227,10.313,3.227,15.985c0,5.675-1.076,11.021-3.227,16.042s-5.088,9.393-8.813,13.109
		c-3.727,3.721-8.082,6.652-13.074,8.799s-10.33,3.22-16.012,3.22h-26.266v-82.226h26.266
		C2424.672,432.604,2430.01,433.679,2435.002,435.824z M2431.596,503.626c3.984-1.718,7.436-4.049,10.35-6.99
		c2.914-2.938,5.232-6.377,6.959-10.313c1.725-3.936,2.586-8.156,2.586-12.664c0-4.433-0.861-8.632-2.586-12.605
		c-1.727-3.971-4.045-7.407-6.959-10.312s-6.363-5.215-10.35-6.936c-3.988-1.718-8.205-2.578-12.65-2.578h-17.596v64.976h17.596
		C2423.391,506.204,2427.608,505.345,2431.596,503.626z"/>
	<path d="M2469.2,432.604h54.164v8.625h-45.539v28.176h33.234v8.625h-33.234v28.175h45.539v8.625H2469.2V432.604z"/>
	<path d="M2590.983,432.604h8.625v82.226h-6.9l-51.52-65.896v65.896h-8.625v-82.226h6.9l51.52,65.896V432.604z"/>
	<path d="M2608.807,432.604h61.525v8.625h-26.449v73.601h-8.625v-73.601h-26.451V432.604z"/>
	<rect x="2243.659" y="159.596" fill="none" width="1355.928" height="224.989"/>
	<text transform="matrix(1 0 0 1 2243.6587 382.1719)" font-family="'BigNoodleTitling'" font-size="310">github.io</text>
</g>
</svg>
