<?xml version="1.0" encoding="utf-8"?>
<!-- Generator: Adobe Illustrator 16.0.0, SVG Export Plug-In . SVG Version: 6.00 Build 0)  -->
<!DOCTYPE svg PUBLIC "-//W3C//DTD SVG 1.1//EN" "http://www.w3.org/Graphics/SVG/1.1/DTD/svg11.dtd">
<svg version="1.1" id="Layer_1" xmlns="http://www.w3.org/2000/svg" xmlns:xlink="http://www.w3.org/1999/xlink" x="0px" y="0px"
	 width="480px" height="480px" viewBox="0 0 480 480" enable-background="new 0 0 480 480" xml:space="preserve">
<circle fill="#434F5B" cx="245" cy="235.667" r="221.667"/>
<rect x="119" y="121" fill="#F2F2F2" width="251" height="131"/>
<rect x="131" y="132" fill="#434F5B" width="227" height="109"/>
<rect x="673" y="145.667" fill="#434F5B" width="1.333" height="1.333"/>
<path fill="#434F5B" d="M177,289"/>
<path fill="#434F5B" d="M177,280"/>
<g>
	<polygon fill="#F2F2F2" points="331,344 156,344 177.839,297 308.267,297 	"/>
	<polygon fill="#434F5B" points="308.812,310 299.545,310 296.907,301 306.628,301 	"/>
	<polygon fill="#434F5B" points="293.812,310 284.545,310 281.907,301 291.628,301 	"/>
	<polygon fill="#434F5B" points="278.812,310 269.545,310 266.907,301 276.628,301 	"/>
	<polygon fill="#434F5B" points="312.812,323 303.545,323 300.907,314 310.628,314 	"/>
	<polygon fill="#434F5B" points="297.812,323 288.545,323 285.907,314 295.628,314 	"/>
	<polygon fill="#434F5B" points="282.812,323 273.545,323 270.907,314 280.628,314 	"/>
	<polygon fill="#434F5B" points="267.812,323 258.545,323 255.907,314 265.628,314 	"/>
	<polygon fill="#434F5B" points="251.907,301 261.174,301 263.812,310 254.091,310 	"/>
	<rect x="240" y="301" fill="#434F5B" width="9" height="9"/>
	<rect x="240" y="314" fill="#434F5B" width="9" height="9"/>
	<polygon fill="#434F5B" points="177.907,310 187.174,310 189.812,301 180.091,301 	"/>
	<polygon fill="#434F5B" points="191.907,310 201.174,310 203.812,301 194.091,301 	"/>
	<polygon fill="#434F5B" points="207.907,310 217.174,310 219.812,301 210.091,301 	"/>
	<polygon fill="#434F5B" points="223.907,310 233.174,310 235.812,301 226.091,301 	"/>
	<polygon fill="#434F5B" points="174.907,323 184.174,323 186.812,314 177.091,314 	"/>
	<polygon fill="#434F5B" points="189.907,323 199.174,323 201.812,314 192.091,314 	"/>
	<polygon fill="#434F5B" points="204.907,323 214.174,323 216.812,314 207.091,314 	"/>
	<polygon fill="#434F5B" points="220.907,323 230.174,323 232.812,314 223.091,314 	"/>
	<rect x="203" y="329" fill="#434F5B" width="84" height="9"/>
</g>
<rect x="146" y="161" fill="none" width="300" height="75"/>
<text transform="matrix(1 0 0 1 146 199.5)" fill="#F2F2F2" font-family="'Minecraftia'" font-size="44">&gt;_code</text>
<g>
	<rect x="237" y="251" fill="#F2F2F2" width="16" height="23"/>
	<rect x="183" y="263" fill="#F2F2F2" width="120" height="17"/>
</g>
</svg>
